<svg version="1.2" xmlns="http://www.w3.org/2000/svg" viewBox="0 0 810 162" width="810" height="162">
	<title>The-News-Times-2-svg</title>
	<style>
		.s0 { fill: #000000 } 
	</style>
	<g id="Layer">
		<path id="Layer" class="s0" d="m106.4 37h12.6v17.5c0 9.6 0.2 17.5 0.4 17.5 0.2 0 1.9-1.5 3.8-3.4 8.3-8.3 23.7-4.9 26.7 6 0.6 2.1 1.1 11.4 1.1 20.6v16.8h2.4c1.4 0 2.8 0.4 3.1 1 0.4 0.6-4.7 1-14.5 1-9.8 0-14.9-0.4-14.5-1 0.3-0.6 1.5-1 2.6-1 2 0 2.1-0.5 1.7-20.5-0.3-22.3-0.7-23.6-5.5-21.9-5.4 1.8-6.8 6.8-7.1 25.6-0.4 16.3-0.3 16.8 1.7 16.8 1.1 0 2.3 0.4 2.6 1 0.4 0.6-4.5 1-13.9 1-9.1 0-14.6-0.4-14.6-1 0-0.6 1.1-1 2.5-1h2.5v-36.5-36.5h-2.4c-1.4 0-2.8-0.5-3.1-1-0.4-0.6 3.8-1 11.9-1z"/>
		<path id="Layer" class="s0" d="m580.9 39c7.9 0 12 4.3 10.7 11.3-1 5.2-3.8 7.2-10.2 7.2-6.5 0-9.3-2.3-10.1-8.3-0.5-3.6-0.2-4.5 2.5-7.2 2.4-2.3 3.9-3 7.1-3z"/>
		<path id="Layer" class="s0" d="m27 42h30.4c16.8 0 30.7 0.3 30.9 0.7 1 1.6 1.1 24.8 0.2 24.7-0.6-0.1-2.3-3.6-3.9-7.8-3.7-9.7-7.9-14.7-12.6-14.9l-3.5-0.2-0.3 33.7-0.2 33.8h3.9c2.2 0 4.3 0.4 4.6 1 0.4 0.7-6 1-18.4 1-12.1 0-19.1-0.4-19.1-1 0-0.6 2-1 4.5-1h4.5v-34.1-34.2l-3.7 0.6c-5.3 0.9-8.9 5.1-12.8 14.6-3.1 7.9-5.1 10.3-4.9 6.1 0-1.1 0.1-6.7 0.2-12.5z"/>
		<path id="Layer" class="s0" d="m246.6 42.2l14.6 0.3 12.6 24.2c7 13.4 13 24.3 13.5 24.3 0.4 0 0.7-10.6 0.7-23.5v-23.5h-2.4c-1.4 0-2.8-0.5-3.1-1-0.4-0.6 2-1 6.4-1 4.1 0 7.1 0.4 7.1 1 0 0.5-1.1 1-2.5 1h-2.5v35 35.1l-7.6-0.3-7.6-0.3-7.2-13.5c-4-7.4-11.9-22.1-17.4-32.5l-10.2-19v31.7 31.8h2.5c1.4 0 2.5 0.4 2.5 1 0 0.6-3 1-7 1-4 0-7-0.4-7-1 0-0.6 1.4-1 3-1h3v-34-34h-3c-1.6 0-3-0.5-3-1 0-0.7 5.1-1 14.6-0.8z"/>
		<path id="Layer" class="s0" d="m499.3 42h30.2 30.2l0.6 8.2c0.9 11.3 0.9 17.8-0.1 17.8-0.5 0-2.3-3.7-4-8.3-4.2-10.7-8.6-15.7-13.9-15.7h-2.3v34 34h4c2.2 0 4 0.4 4 1 0 0.6-7 1-19.1 1-12.4 0-18.8-0.3-18.4-1 0.3-0.6 2.4-1 4.6-1h3.9v-34c0-33.6 0-34-2-34-6 0-11.1 6.1-15.1 17.9-1.2 3.3-2.5 6.1-3 6.1-1 0-1.2-16.5-0.3-22.3z"/>
		<path id="Layer" fill-rule="evenodd" class="s0" d="m194.5 65.1c7.7 2.1 13.5 10.6 13.5 19.6v3.3h-29.3l0.5 7.7c0.7 12.1 4 16.3 12.7 16.3 4.7 0 9.7-3.3 12.2-7.9 2.5-4.7 4.4-6.4 3.4-3.1-3 10.1-9.2 14-22.2 14-16.8-0.1-26.3-9.2-26.3-25.3 0-7 1.8-12.1 5.8-16.7 3.6-4.3 7.7-6.8 12.7-8.1 4.6-1.1 12.6-1 17 0.2zm-9.5 0.9c-4.3 0-6.4 5.3-5.8 14.5l0.3 5h10l-0.2-7.7c-0.1-4.2-0.7-8.6-1.3-9.7-0.6-1.2-1.9-2.1-3-2.1z"/>
		<path id="Layer" fill-rule="evenodd" class="s0" d="m348 79.7c1.8 8.5 2.1 8.3-14 8.3h-14v6.2c0 12.4 2.7 16.8 10.8 17.6 6.5 0.6 10.4-1.5 13.9-7.5 2-3.4 2.9-4.3 3.1-3 0.5 2.6-3.4 8.3-7.4 10.8-4 2.4-14.2 3.6-21.7 2.5-5.9-0.9-12.7-5.5-15.6-10.6-2.6-4.6-3.7-13.3-2.7-20.3 1.3-8.6 8.9-16.6 18-18.8 14.7-3.5 27.1 2.7 29.6 14.8zm-27.9-2l-0.3 8.3h10.2v-8.3c0-6.9-0.3-8.7-1.8-10-4.8-4.4-7.6-0.9-8.1 10z"/>
		<path id="Layer" class="s0" d="m460.2 65.6c5.5 1.6 5.9 1.6 7.8-0.1 2-1.8 2-1.7 2 6.4 0 5.2-0.4 8-1 7.6-0.5-0.3-1-1.2-1-1.9 0-2.6-7.1-9.6-11-10.7-7.4-2.2-14.9 1.3-13.6 6.4 0.6 2.6 4.4 4.6 13.7 7.1 11.6 3.2 16.3 8.9 15.6 18.9-0.4 6.1-2.2 9.5-7.1 13.1-3.7 2.8-15.6 3.5-21 1.2-4.8-2-7.5-2-8.2-0.1-1.5 3.8-2.4 0.7-2.4-7.8l0.1-9.2 2.8 5.5c4 7.5 8 10.3 15.6 10.8 7.5 0.4 10.9-1.2 11.3-5.4 0.4-4.1-1.7-5.7-11.8-8.8-10.6-3.2-14.2-5.4-16.3-9.9-4.5-9.5 0.3-20.7 10.2-23.7 4.2-1.3 8.1-1.1 14.3 0.6z"/>
		<path id="Layer" class="s0" d="m651.2 70.5l2.1 3.7 2-3.2c5.8-9.1 20.9-9.1 26.2 0 1.8 3.1 2 5.6 2.4 22.2 0.3 16.6 0.5 18.8 2 18.8 0.9 0 2.3 0.5 3.1 1 1 0.7-3.4 1-13.2 1-9.2 0-14.8-0.4-14.8-1 0-0.6 0.7-1 1.5-1 1.3 0 1.5-2.8 1.3-21.3l-0.3-21.2h-2.4c-1.5 0-3.2 1.1-4.5 2.8-1.9 2.6-2.1 4.4-2.4 21.1-0.3 18.2-0.3 18.2 2 19.4 1.8 0.8-0.6 1.1-11.4 1.1-8.6 0.1-13.8-0.3-13.8-0.9 0-0.6 0.6-1 1.4-1 1 0 1.6-1.9 2.2-6.7 0.9-8.7 0-34.1-1.4-35.5-1.9-1.9-5.3 0.3-7.3 4.5-1.6 3.6-1.9 6.7-1.9 20.9 0 14 0.2 16.8 1.4 16.8 0.8 0 1.8 0.4 2.1 1 0.4 0.6-4.5 1-14 1-9.5 0-14.4-0.4-14-1 0.3-0.6 1.7-1 3.1-1h2.4l-0.2-22.3-0.3-22.2-2.7-0.3c-1.6-0.2-2.8-0.8-2.8-1.3 0-0.5 5.4-0.9 12.5-0.9h12.5v4.2 4.3l1.9-3.1c1-1.6 3.4-3.8 5.2-4.7 7.2-3.5 16.4-1.3 20.1 4.8z"/>
		<path id="Layer" fill-rule="evenodd" class="s0" d="m727.7 65.5c8.3 2.5 12.6 8.5 12.7 18l0.1 4-14.2 0.3-14.3 0.3v6.7c0 7.5 2.5 14.3 5.8 16.1 3.3 1.7 10.4 1.3 13.9-0.9 1.8-1 4.3-4 5.6-6.6 1.3-2.6 2.7-4.3 3-3.7 0.3 0.5-0.3 2.8-1.5 5.1-3.5 7.1-9.8 10.2-20.7 10.2-11.4 0-18.8-3.6-23.1-11.2-2.5-4.4-3.8-14.9-2.6-21.1 1.4-7.5 8.9-15.1 17.4-17.7 4.4-1.3 12.5-1.1 17.9 0.5zm-15.7 13.5v7.1l4.8-0.3 4.7-0.3 0.3-8.1c0.2-6.5-0.1-8.5-1.3-9.8-4.7-4.6-8.5 0.5-8.5 11.4z"/>
		<path id="Layer" class="s0" d="m772.6 65.7c5.1 1.6 5.5 1.6 7.4-0.2 2-1.8 2-1.8 2 6.6l-0.1 8.4-1.9-3.6c-2.6-4.9-8.2-9.7-12.5-10.5-8.6-1.6-15.7 4.2-10.9 9 0.8 0.9 5.2 2.7 9.7 4.1 14.4 4.4 18.7 8.6 18.7 18.4 0 11-6.7 17.1-18.8 17.1-3.5 0-7.9-0.7-9.9-1.5-4.5-1.9-5.8-1.9-7.8 0.1-0.9 0.9-1.8 1.4-2.1 1.1-0.3-0.2-0.4-4.4-0.2-9.3l0.3-8.8 3 5.9c3.8 7.4 8.5 10.5 16 10.5 6.7 0 9.9-1.7 10.3-5.6 0.4-4.1-1.7-5.7-10.8-8.4-9.9-2.9-15.4-6.1-17.4-10.4-4.3-9.2 0.7-20.7 10.3-23.6 4.3-1.3 9.1-1.1 14.7 0.7z"/>
		<path id="Layer" class="s0" d="m365 65c9.3 0 15 0.4 15 1 0 0.5-1.1 1-2.5 1-1.4 0-2.5 0.5-2.5 1.1 0 2.5 8.4 32.7 9 32.4 0.4-0.2 2.2-5.4 4-11.5 3.1-10.4 3.2-11.3 2.1-16.5-1-4.3-1.7-5.5-3.2-5.5-1 0-1.9-0.5-1.9-1 0-0.6 5-1 13-1 8 0 13 0.4 13 1 0 0.5-0.7 1-1.5 1-0.8 0-1.5 0.5-1.5 1.1 0 2.1 8.3 32.9 8.7 32.5 0.4-0.4 9.3-32.4 9.3-33.4 0-0.1-1.6-0.2-3.5-0.2-1.9 0-3.5-0.5-3.5-1 0-0.6 3-1 7-1 4 0 7 0.4 7 1 0 0.5-1 1-2.3 1-2.2 0-2.7 1.4-8.3 23.2l-6.1 23.3h-7.4-7.3l-4.1-14.2c-2.2-7.8-4.3-14.4-4.6-14.7-0.3-0.3-2.6 6-5.1 14.2l-4.4 14.7-7.2 0.3-7.1 0.3-7.7-23.6c-6.4-19.7-7.9-23.5-9.5-23.5-1 0-1.9-0.5-1.9-1 0-0.6 5.7-1 15-1z"/>
		<path id="Layer" class="s0" d="m578.5 65h12.5v23.5 23.5h2.4c1.4 0 2.8 0.4 3.1 1 0.4 0.7-4.8 1-15 1-10.2 0-15.4-0.3-15-1 0.3-0.6 1.7-1 3.1-1h2.4l-0.2-22.3-0.3-22.2-2.7-0.3c-1.6-0.2-2.8-0.8-2.8-1.3 0-0.5 5.4-0.9 12.5-0.9z"/>
	</g>
</svg>